<?xml version="1.0" standalone="no"?>
<!DOCTYPE svg PUBLIC "-//W3C//DTD SVG 1.1//EN" "http://www.w3.org/Graphics/SVG/1.1/DTD/svg11.dtd" >
<!--
2013-9-30: Created.
-->
<svg>
<metadata>
Created by iconfont
</metadata>
<defs>

<font id="iconfont" horiz-adv-x="1024" >
  <font-face
    font-family="iconfont"
    font-weight="500"
    font-stretch="normal"
    units-per-em="1024"
    ascent="896"
    descent="-128"
  />
    <missing-glyph />
    
    <glyph glyph-name="wenjian" unicode="&#59152;" d="M1126.395494 607.485058L195.583218 179.198771 51.199795 484.45195 935.369059 890.773525c26.623894 13.209547 57.753369 0 68.863724-24.166303L1126.395494 607.485058zM493.361227 694.831909L484.350063 760.674845C482.097272 780.437966 466.327735 793.596314 446.052616 793.596314H38.297447C18.022328 793.596314 0 776.034784 0 756.271663V-90.62415c0-19.763121 18.022328-37.324651 38.297447-37.32465h1049.800601c20.275119 0 38.297447 17.56153 38.297446 37.32465V624.636989c0 19.763121-18.022328 37.324651-38.297446 37.324651H531.658673"  horiz-adv-x="1126" />

    
    <glyph glyph-name="excel" unicode="&#58897;" d="M915.605854 558.729366H752.265366v-101.400976h163.340488V558.729366z m0-129.073951H752.265366v-101.400976h163.340488V429.655415z m0 258.048H752.265366V586.302439h163.340488V687.703415z m0-511.400586H752.265366V74.801951h163.340488V176.302829zM990.632585 789.10439H597.916098c-4.595512 0-9.091122-0.899122-13.287025-2.697366V896L1.998049 779.913366v-791.826732L584.629073-128V-23.901659c4.195902-1.798244 8.691512-2.697366 13.287025-2.697365h392.81639c19.480976 0 35.365463 16.583805 35.365463 36.864V752.24039c-0.199805 20.380098-15.884488 36.864-35.465366 36.864zM394.814439 213.066927l-70.631024 4.595512-52.948293 133.669463-57.344-124.478439-66.235317 4.595513 83.818146 152.151414-75.026731 165.838049 66.135414 4.595512L266.739512 429.655415h8.791415L324.083512 563.324878l70.631025 4.595512-88.213854-175.128975 88.313756-179.724488z m587.026732-193.610927H584.629073V74.801951h132.370732V176.202927H584.629073v22.977561h132.370732V300.581463H584.629073v27.672976h132.370732V429.655415H584.629073v27.672975h132.370732V558.729366H584.629073V586.302439h132.370732V687.703415H584.629073v55.345951h397.212098v-723.593366z m-66.235317 281.225366H752.265366v-101.400976h163.340488V300.681366z m0 0"  horiz-adv-x="1027" />

    
    <glyph glyph-name="tisheng" unicode="&#59210;" d="M687.223134 381.865232C639.018695 842.837391 190.3731 896 190.3731 896c160.727371-62.528043 173.191661-379.919839 171.125757-514.134768H126.12347l383.294149-509.589778 388.458911 509.589778z"  horiz-adv-x="1024" />

    
    <glyph glyph-name="tisheng-copy" unicode="&#59211;" d="M336.776866 386.134768C384.981305-74.83739100000003 833.6269-128 833.6269-128c-160.72737101 62.528043-173.191661 379.919839-171.125757 514.134768L897.87652999 386.134768l-383.29414899 509.589778-388.45891099-509.589778z"  horiz-adv-x="1024" />

    
    <glyph glyph-name="xiaoshuai" unicode="&#59206;" d="M743.424 128l9.92 23.338667H215.338667V689.344L192 679.424 229.354667 768 266.666667 679.424l-23.296 9.92v-509.866667h509.866666l-9.813333 23.189334L832 165.35466699999995zM290.133333 216.746667h93.44v112.128H290.133333z m233.578667 0V431.637333h-93.44V216.746667z m65.408 0h93.44V525.077333h-93.44zM286.954667 464l6.4-27.328A748.48 748.48 0 0 1 652.8 642.88l35.008-26.048 13.312 113.813333-105.130667-45.397333 34.325334-25.6A719.488 719.488 0 0 0 286.954667 464z"  horiz-adv-x="1024" />

    
    <glyph glyph-name="lianhe" unicode="&#59207;" d="M192.970667 246.84799999999996a63.125333 63.125333 0 0 0 6.144 26.389333c24.256-52.906667 119.466667-92.48 233.514666-92.48q23.616 0 47.146667 2.389334a205.546667 205.546667 0 0 1 61.184-42.346667 446.826667 446.826667 0 0 0-108.330667-12.8C300.234667 128 192.970667 181.205333 192.970667 246.84799999999996z m248.874666 82.624a194.602667 194.602667 0 1 0 194.602667-194.581333 194.581333 194.581333 0 0 0-194.602667 194.581333z m132.266667-42.410667h41.493333v-22.976h36.266667v22.976H692.170667v16.746667h-40.213334v12.565333H692.170667v16.576h-32.576l45.845333 55.082667H668.704l-14.272-21.056q-14.357333-20.714667-16.426667-24.981333l-2.133333-4.394667h-0.789333q-6.954667 12.16-33.301334 50.432h-38.741333l44.586667-55.082667h-33.408v-16.576h41.493333v-12.565333h-41.493333z m117.888 45.866667zM192.970667 325.07733299999995a62.890667 62.890667 0 0 0 6.144 26.389334C223.242667 298.66666699999996 317.856 259.328 431.328 259.00800000000004a205.909333 205.909333 0 0 1 27.733333-52.032 508.586667 508.586667 0 0 0-26.325333-0.768C300.234667 206.229333 192.970667 259.434667 192.970667 325.07733299999995z m0 78.229334a62.933333 62.933333 0 0 0 6.144 26.389333c23.253333-50.837333 111.957333-89.194667 219.925333-92.202667-0.128-2.688-0.384-5.354667-0.448-8.021333a206.677333 206.677333 0 0 1 5.013333-44.8C295.370667 287.01866700000005 192.970667 339.20000000000005 192.970667 403.328z m0 78.186666a63.125333 63.125333 0 0 0 6.144 26.389334c24.256-52.906667 119.466667-92.458667 233.514666-92.458667h4.906667a203.605333 203.605333 0 0 1-16.042667-52.608C294.346667 365.82399999999996 192.970667 417.749333 192.970667 481.493333z m0 78.186667a63.125333 63.125333 0 0 0 6.144 26.389333c24.256-52.906667 119.466667-92.48 233.514666-92.48a462.336 462.336 0 0 1 75.541334 6.144 207.146667 207.146667 0 0 1-56.490667-58.410666c-6.4-0.256-12.608-0.512-19.072-0.512C300.234667 440.810667 192.970667 494.058667 192.970667 559.6800000000001z m0 89.450667C192.970667 714.773333 300.234667 768 432.629333 768s239.616-53.226667 239.616-118.869333-107.242667-118.848-239.616-118.848S192.970667 583.509333 192.970667 649.130667z m180.629333-31.061334h41.514667V595.2h36.266666V618.0693329999999h40.128v16.725334h-40.149333v12.586666h40.128v16.576H458.997333L504.842667 718.933333H468.170667l-14.250667-21.056q-14.378667-20.736-16.426667-24.981333l-2.133333-4.416h-0.789333q-7.04 12.288-33.365334 50.453333H362.421333l44.586667-55.082666H373.6v-16.576h41.514667v-12.565334H373.6z m252.138667-81.6c-3.434667 0-6.826667-0.32-10.218667-0.490666a120.298667 120.298667 0 0 1 50.602667 50.154666 59.733333 59.733333 0 0 0-0.448-53.610666 209.066667 209.066667 0 0 1-39.957334 3.968z"  horiz-adv-x="1024" />

    
    <glyph glyph-name="jinbi" unicode="&#59208;" d="M1174.55264462 824.79859864a139.27229969 139.27229969 0 0 0-5.79976195 13.49809869 55.86496621 55.86496621 0 0 0 0 14.7984965 24.88955796 24.88955796 0 0 0 7.80237071 12.17169729c4.4993673 4.4993673 7.80237072 6.47596605 10.97533341 5.79975869a33.47216673 33.47216673 0 0 0 10.97533335-3.8491668l13.49809869-5.20158155a49.98718051 49.98718051 0 0 1 20.6242621-3.84916686 28.73872801 28.73872801 0 0 1 17.99746607 5.79976195l12.17169726 13.49809871 12.17169728 12.84790144a30.87137753 30.87137753 0 0 0 18.64766335 5.79976186 24.26537073 24.26537073 0 0 0 17.99746603-5.79976186 57.21737776 57.21737776 0 0 0 12.17169724-12.84790144l13.49809878-13.49809871a33.03003079 33.03003079 0 0 1 19.29786379-5.79976195 24.8635511 24.8635511 0 0 1 16.12489478 5.79976195l13.49810194 13.49809871c4.4993673 4.4993673 7.80237072 8.34853413 12.84790146 12.84790144a30.87137753 30.87137753 0 0 0 18.64766335 5.79976186 28.27058516 28.27058516 0 0 0 18.64766332-5.79976186 57.21737776 57.21737776 0 0 0 12.17169725-12.84790144l12.17169724-13.49809871a26.45003404 26.45003404 0 0 1 17.9974661-5.79976195 47.88054102 47.88054102 0 0 1 20.6242621 3.84916686l14.14829917 5.20158155a28.89477563 28.89477563 0 0 0 10.40315992 3.8491668c1.97659877 0.65019727 5.79976191-1.30039456 10.97533333-5.79975869a20.07809866 20.07809866 0 0 0 7.12616335-12.17169729 55.89097625 55.89097625 0 0 0 0-14.7984965 40.07817351 40.07817351 0 0 0-5.79976192-13.49809869 77.76361919 77.76361919 0 0 0-8.99873137-10.97533343l-15.60474144-15.37066681c-8.34853413-8.34853413-15.47470067-16.12489795-23.79722795-23.79722795-9.64893191-9.64893191-18.64766334-19.97406799-28.29659201-30.27319397h-206.0865924c-10.97533342 10.40315991-19.97406799 20.62426529-29.62299672 30.27319397-7.12616335 7.80237072-15.47470067 15.47470067-22.49683335 23.79722795l-16.77509528 15.4746975a80.85855803 80.85855803 0 0 0-9.93501698 10.87130274z m485.48945034-419.11729371c82.39302402 0 150.03956853 35.42275857 150.03957168 79.84425181v-31.57359177c0-43.77129269-67.62053759-79.84424861-150.03957168-79.84424865a280.10507226 280.10507226 0 0 0-62.41895611 7.12616342 189.62359235 189.62359235 0 0 1-54.61658851 23.14703062 61.89879954 61.89879954 0 0 0-32.14576527 49.57105461v31.57359177c-0.20806455-44.44750007 66.21611235-79.84424861 149.18130989-79.84425181z m-191.86026937-258.10238857c82.39302402 0 150.03956853 36.0729559 150.0395685 79.84424864v-31.5735886c0-43.77129269-67.62053759-79.84424861-150.0395685-79.84425181s-150.03956853 36.0729559-150.03957172 79.84425182v31.57358859c0-44.52552391 67.56852066-79.87025867 150.06557864-79.87025865z m42.44489131 361.11967795c0 43.77129269 66.34614992 80.62448663 149.38937118 80.62448662 82.39302402 0 150.03956853-36.64512934 150.03956851-80.62448662 0-43.12109547-67.62053759-79.19405134-150.03956851-79.19405456-82.93919065-0.02600685-149.36336432 36.04694902-149.36336435 79.19405456z m-28.29659527-84.91579262c-4.4993673 0-155.21514316 1.30039456-188.66129982-92.04195278a34.51248302 34.51248302 0 0 1-4.4993673-10.97533335 100.13041183 100.13041183 0 0 1-1.97659876-36.64512938v-83.69341868a450.48282091 450.48282091 0 0 0-72.82211915 12.84790151 280.10507226 280.10507226 0 0 0-97.19151735 48.27066005 199.48058559 199.48058559 0 0 0-56.04702389 76.67128593 283.79819459 283.79819459 0 0 0-17.34726871 102.34108195 307.28332735 307.28332735 0 0 0 7.02213266 63.71935383 261.89954484 261.89954484 0 0 0 21.27446253 55.3968266 245.41053472 245.41053472 0 0 0 30.27319404 46.39809197 337.34845999 337.34845999 0 0 0 34.7725613 39.27192535 404.08472893 404.08472893 0 0 0 94.04456154 68.81690154h249.10365712a410.45666428 410.45666428 0 0 0 92.69215331-68.89492529 328.01162335 328.01162335 0 0 0 27.64639792-30.92339134c-27.07422449-5.20157836-106.29428269-28.97279942-116.48938119-87.54258861l-3.84917004-24.47343208a220.72903811 220.72903811 0 0 1 0-58.56978925c1.40442526-11.65153753 2.08063261-18.12750675 2.0806326-20.00007485zM1281.41910072 500.89622357a13.75817698 13.75817698 0 0 1 13.49809871-14.14829608h51.54765662v-30.9233912a11.52150001 11.52150001 0 0 1 12.84790139-12.84790465 12.45778244 12.45778244 0 0 1 12.84790467 12.84790465v30.9233912h51.46962953a13.60213265 13.60213265 0 0 1 13.00395223 14.14829608 12.84790146 12.84790146 0 0 1-12.8479046 12.8479014h-51.65168727v25.12363262h51.49563964a13.00394906 13.00394906 0 0 1 12.84790459 13.49809872 13.49809871 13.49809871 0 0 1-12.84790459 13.49809874h-43.7712927l53.42022458 54.07042194a11.46948308 11.46948308 0 0 1 0 17.99746605 13.68015635 13.68015635 0 0 1-17.997466 0l-52.77002738-53.4202246h-5.7217381l-51.49563959 51.6256803a11.46948308 11.46948308 0 0 1-17.99746604 0 14.538415 14.538415 0 0 1 0-18.64766334l51.54765658-51.54765655h-43.77129596a13.62813945 13.62813945 0 0 1-13.4980987-13.49809873 13.21201359 13.21201359 0 0 1 13.4980987-13.49809867h51.54765657v-25.12363264h-51.54765657a13.00394906 13.00394906 0 0 1-13.65414631-12.92592525z m378.64900429-260.72918778c82.39302402 0 150.03956853 34.77256129 150.03956852 79.19405129v-32.14576204c0-43.12109547-67.62053759-79.19405134-150.03956852-79.19405134a31.65161236 31.65161236 0 0 0-13.49810195 1.30039461v17.99746605a49.59706469 49.59706469 0 0 1-1.30039457 8.9987314c0.65019727 0.65019727 0.65019727 1.97659877 0.65019732 3.84917003z m0 55.3968266c82.39302402 0 150.03956853 35.42275857 150.03956852 79.19405131v-31.57358859c0-44.42149003-67.62053759-79.19405134-150.03956852-79.19405456h-13.49810195v18.64766336a49.59706469 49.59706469 0 0 1-1.30039457 8.99873458c0.65019727 0.65019727 0.65019727 1.97659877 0.65019732 3.84917008h14.1482992z m-14.79849652 23.79722469a74.74670092 74.74670092 0 0 1-14.7984933 32.79596255 217.29599713 217.29599713 0 0 1 29.62299667-1.97660194c82.39302402 0 150.03956853 36.74916006 150.03956859 80.62448668v-32.14576209c0-43.77129269-67.62053759-79.19405134-150.03956859-79.19405133z m-177.03576915-115.94321132c82.39302402 0 150.03956853 34.77256129 150.03957172 79.19405133v-32.14576211c0-43.12109547-67.62053759-79.19405134-150.03957171-79.1940545s-150.03956853 36.0729559-150.03956851 79.1940545v32.14576211c-0.05201692-44.39548313 67.51650686-79.09002063 150.01356167-79.09002071z m1e-8 182.18533055c82.39302402 0 150.03956853-35.42275857 150.03957171-79.1940513 0-44.42149003-67.62053759-79.19405134-150.03957171-79.19405452s-150.03956853 34.77256129-150.03956851 79.19405452c-0.05201692 43.97935725 67.51650686 79.29808518 150.01356167 79.29808516z"  horiz-adv-x="2832" />

    
    <glyph glyph-name="lianhe13" unicode="&#59209;" d="M192 260.79999999999995a78.784 78.784 0 0 0 26.410667 55.616V393.6A85.184 85.184 0 0 0 192 449.194667a78.762667 78.762667 0 0 0 26.410667 55.616v74.666666A79.146667 79.146667 0 0 0 192 635.2C192 709.589333 322.005333 768 483.989333 768c161.6 0 291.989333-58.410667 291.989334-132.8a79.146667 79.146667 0 0 0-26.389334-55.829333v-74.666667a85.333333 85.333333 0 0 0 26.389334-55.616 78.741333 78.741333 0 0 0-26.389334-55.594667v-5.205333a123.52 123.52 0 0 1-29.994666 3.584A132.096 132.096 0 0 1 646.4 149.99466700000005 571.733333 571.733333 0 0 0 483.989333 128C322.005333 128 192 186.410667 192 260.79999999999995z m212.394667 50.389333a75.562667 75.562667 0 0 1 79.594666-74.389333 75.797333 75.797333 0 0 1 79.594667 74.389333c0 47.594667-79.594667 138.005333-79.594667 138.005334s-79.978667-87.594667-79.594666-137.984zM244.8 635.2c0-24 85.205333-79.594667 239.189333-79.594667S722.794667 611.2 722.794667 635.2s-84.8 79.594667-238.805334 79.594667C329.6 714.794667 244.8 659.2 244.8 635.2z m363.605333-376.405333a112 112 0 1 0 112-112 111.829333 111.829333 0 0 0-112 112z m45.589334 52.8v-104.789334a14.186667 14.186667 0 0 1 14.016-14.016h104.789333a14.165333 14.165333 0 0 1 13.994667 14.016v104.789334a14.165333 14.165333 0 0 1-13.994667 13.994666h-104.789333a14.165333 14.165333 0 0 1-14.016-13.994666z m29.610666-84.010667a5.205333 5.205333 0 1 0 0 10.410667h73.194667a5.034667 5.034667 0 0 0 5.205333-5.205334 5.290667 5.290667 0 0 0-5.205333-5.205333z m48.789334 28.010667a5.205333 5.205333 0 1 0 0 10.410666h24.405333a5.034667 5.034667 0 0 0 5.205333-5.205333 5.290667 5.290667 0 0 0-5.205333-5.205333z m-48.789334 0a5.290667 5.290667 0 0 0-5.205333 5.205333v24.405333a5.290667 5.290667 0 0 0 5.205333 5.205334h24.405334a5.290667 5.290667 0 0 0 5.205333-5.205334v-24.405333a5.290667 5.290667 0 0 0-5.205333-5.205333zM425.6 314.00533299999995c0 26.410667 31.594667 63.594667 50.005333 100.8-2.389333-18.389333-26.410667-74.389333-26.410666-108.8a129.109333 129.109333 0 0 1 10.816-45.205333 59.946667 59.946667 0 0 0-34.410667 53.205333z m306.794667-34.005333a5.205333 5.205333 0 0 0 0 10.410667h24.405333a5.034667 5.034667 0 0 0 5.205333-5.205334 5.290667 5.290667 0 0 0-5.205333-5.205333zM324.394667 635.2c0 14.805333 24 26.410667 53.205333 26.410667 29.610667 0 53.205333-11.605333 53.205333-26.410667 0-14.4-23.594667-26.410667-53.205333-26.410667s-53.205333 11.605333-53.205333 26.410667z"  horiz-adv-x="1024" />

    
    <glyph glyph-name="jiazhibiaozheng" unicode="&#59205;" d="M296.591606-11.256496H0.085276l162.622252 249.604264a432.948701 432.948701 0 0 0-2.814124 117.852099 5.713524 5.713524 0 0 0 2.131912 3.581612 5.457695 5.457695 0 0 0 4.178548 0.938041l18.846103-3.581612a5.116589 5.116589 0 0 0 4.178547-5.713524 404.551632 404.551632 0 0 1-1.364423-74.446369l269.303131 413.420386a390.822119 390.822119 0 0 1-20.892738-8.101266 406.598268 406.598268 0 0 1-48.181213-24.047968 5.201865 5.201865 0 0 0-6.992671 1.534977l-10.830114 15.946702a5.628248 5.628248 0 0 0-0.852764 4.093271 5.798801 5.798801 0 0 0 2.473018 3.496336 442.073284 442.073284 0 0 0 52.956695 26.43571 436.189207 436.189207 0 0 0 57.476349 19.443038L591.051299 896l108.301133-166.289141a441.988008 441.988008 0 0 0 112.735509-46.219853 5.457695 5.457695 0 0 0 2.387742-3.411059 5.201865 5.201865 0 0 0-0.852765-4.093271l-10.744837-15.861426a5.116589 5.116589 0 0 0-6.907395-1.620253 412.482345 412.482345 0 0 1-71.717521 32.746169l272.117255-417.854764a406.854097 406.854097 0 0 1-0.852765 78.624917 5.116589 5.116589 0 0 0 4.178548 5.628248l18.846102 3.581612a5.457695 5.457695 0 0 0 4.178548-0.938041 5.372418 5.372418 0 0 0 2.046635-3.581612 436.445037 436.445037 0 0 0-3.496335-121.604264l160.490339-246.449034h-293.351099a434.91006 434.91006 0 0 0-149.148568-90.648901 430.475683 430.475683 0 0 0-145.737508-25.582945 439.770819 439.770819 0 0 0-296.932711 116.317122z m432.010659-62.934044a407.621586 407.621586 0 0 1 114.270486 62.934044H342.385077a406.683544 406.683544 0 0 1 386.217188-62.934044z m-279.451032 376.069288a143.349767 143.349767 0 0 1 143.26449-143.264491 143.435043 143.435043 0 0 1 143.435043 143.264491 143.435043 143.435043 0 0 1-143.435043 143.349766 143.349767 143.349767 0 0 1-143.26449-143.349766zM203.810793 360.463691l-53.553631 9.977348a5.798801 5.798801 0 0 0-3.411059 2.217189 5.969354 5.969354 0 0 0-0.852765 3.922718l4.3491 23.195203a5.372418 5.372418 0 0 0 6.139907 4.178548l53.553631-10.062625a5.372418 5.372418 0 0 0 3.411059-2.217189 5.457695 5.457695 0 0 0 0.852765-3.922718l-4.3491-23.109926a5.287142 5.287142 0 0 0-5.287142-4.263825z m769.620253 5.287142l-4.007995 21.57495a5.116589 5.116589 0 0 0 4.093271 6.139907l50.568954 9.465689a5.287142 5.287142 0 0 0 6.054631-4.178548l4.093271-21.57495a5.201865 5.201865 0 0 0-4.178548-6.139906l-50.483677-9.550966h-1.023318a5.287142 5.287142 0 0 0-5.116589 4.178547z m-780.109261 38.033311l-18.846102 3.581612a5.116589 5.116589 0 0 0-3.496336 2.387742 5.201865 5.201865 0 0 0-0.682212 4.178547 434.91006 434.91006 0 0 0 24.73018 71.546969l-69.073951 105.998668h136.442372a440.538308 440.538308 0 0 0 61.484344 58.926049 5.457695 5.457695 0 0 0 4.093271 1.023318 5.201865 5.201865 0 0 0 3.496336-2.217189l10.830113-15.946702a5.201865 5.201865 0 0 0-1.108594-6.992672 406.768821 406.768821 0 0 1-141.473684-218.6489 5.201865 5.201865 0 0 0-5.116589-3.922719z m792.133245 4.434377a400.799467 400.799467 0 0 1-18.67555 55.941372 403.187209 403.187209 0 0 1-123.565623 162.536976 5.116589 5.116589 0 0 0-1.19387 6.992671L852.764823 649.636243a5.201865 5.201865 0 0 0 3.581613 2.217188 4.775483 4.775483 0 0 0 4.007994-1.108594 428.343771 428.343771 0 0 0 62.251832-59.267155h133.287142l-67.283144-103.269821 5.457695-12.535642a439.003331 439.003331 0 0 0 20.210526-61.228515 5.201865 5.201865 0 0 0-0.682212-4.093271 5.287142 5.287142 0 0 0-3.496336-2.302465l-18.760826-3.581612h-1.023318a5.201865 5.201865 0 0 0-4.860759 3.666889zM818.568954 619.363091l-20.12525 13.644237a4.860759 4.860759 0 0 0-2.131912 3.325783 5.287142 5.287142 0 0 0 0.767488 4.007995l31.29647 46.219853a5.116589 5.116589 0 0 0 3.411059 2.217189 5.798801 5.798801 0 0 0 4.007994-0.852765l20.039974-13.644237a5.116589 5.116589 0 0 0 2.217188-3.411059 5.031312 5.031312 0 0 0-0.852764-3.922719l-31.296469-46.305129a5.287142 5.287142 0 0 0-4.434378-2.217189 4.860759 4.860759 0 0 0-2.728847 0.852765z m-459.981346 1.534977l-30.358427 44.5996a5.798801 5.798801 0 0 0-0.767489 3.922718 5.713524 5.713524 0 0 0 2.131912 3.41106l19.357762 13.047302a5.201865 5.201865 0 0 0 7.248501-1.364424l30.273151-44.5996a5.287142 5.287142 0 0 0-1.364424-7.248501l-19.357761-13.047302a4.946036 4.946036 0 0 0-2.899401-0.938042 5.201865 5.201865 0 0 0-4.60493 2.131912z"  horiz-adv-x="1183" />

    
    <glyph glyph-name="zu" unicode="&#59204;" d="M512 384m-512 0a512 512 0 1 1 1024 0 512 512 0 1 1-1024 0ZM678.2592 492.928h65.152v-347.3472h-65.152zM711.6864 219.7056V436.096a31.36 31.36 0 0 1-31.36 31.328h-221.8112l-57.6448 64.7488h-87.52a31.36 31.36 0 0 1-31.36-31.36v-284.064a31.36 31.36 0 0 1 31.36-31.328h432.1472l-33.8368 34.2528z m0 0M526.1952 550.9696a31.36 31.36 0 0 1-31.36-31.36v-301.6064a31.328 31.328 0 0 1 31.36-31.328h236.4352a31.3152 31.3152 0 0 1 31.328 31.328v215.7952l-118.2144 117.1712z m0 0M793.9584 433.792l-118.2144 117.1776v-86.4704a31.36 31.36 0 0 1 31.36-31.36l86.8864 0.64z m0 0M679.5008 177.1008v219.7248a31.36 31.36 0 0 1-31.36 31.36h-221.1584l-57.6576 64.736H280.768a31.36 31.36 0 0 1-31.328-31.328v-284.4864a31.36 31.36 0 0 1 31.3216-31.328h430.08a31.3216 31.3216 0 0 0-31.328 31.328z m0 0M368.9088 315.1616a16.2944 16.2944 0 1 1 16.2944 16.288 16.2944 16.2944 0 0 1-16.2944-16.288z m0 0h152.896a16.288 16.288 0 1 1 16.288 16.288 16.3008 16.3008 0 0 1-16.288-16.288z m74.3616-66.208H441.6a3.968 3.968 0 0 0-1.8816 5.216c0 1.8816 8.96 19.2 22.3488 19.84 8.3584 0 16.2944-6.2656 23.1872-19.424a3.968 3.968 0 0 0-6.8928-3.7568c-5.4336 10.24-11.072 15.6672-16.0832 15.456s-13.7856-11.2768-15.456-15.04a3.9616 3.9616 0 0 0-3.552-2.2912z m0 0M746.336 559.744a5.8432 5.8432 0 0 1-5.8496-5.8432v-34.6752a5.8496 5.8496 0 1 1 11.6992 0v34.6752a5.8432 5.8432 0 0 1-5.8496 5.8432z m60.8-59.3216h-34.6752a5.8496 5.8496 0 0 1 0-11.6992h34.6752a5.8496 5.8496 0 1 1 0 11.6992z m-13.1648 31.9552a5.9072 5.9072 0 0 1-8.32 8.3584l-24.4416-24.6464a5.9072 5.9072 0 0 1 8.3584-8.3584z m0 0M422.3808 594.8352l17.1264-4.8-17.1264-4.5952-4.8064-28.1984-4.5952 28.1984-16.288 4.5952 16.288 4.8 4.5952 17.76z m49.92 13.1648l13.5744-3.7568-13.5744-3.552-3.552-22.1376-3.7568 22.1376-12.736 3.552 12.736 3.7568 3.7568 13.9968z m0 0"  horiz-adv-x="1024" />

    
    <glyph glyph-name="lianhe8" unicode="&#59195;" d="M930.679456-128H197.667872A104.92485 104.92485 0 0 0 92.962377-18.322456V425.944714h69.901155V-18.322456a33.780683 33.780683 0 0 1 34.877459-36.559182h663.256666V668.990151a33.853802 33.853802 0 0 1-34.950578 36.559181H289.504536v-94.322687a24.275296 24.275296 0 0 0-15.354857-20.619378 23.324758 23.324758 0 0 0-24.714006 5.118285L108.975299 726.973013a21.058088 21.058088 0 0 0-6.800008 15.501092 21.204325 21.204325 0 0 0 6.800008 15.574212L249.435673 889.295777a23.324758 23.324758 0 0 0 24.787125 5.045167 24.275296 24.275296 0 0 0 15.281738-20.619378v-95.053871h536.542543a104.851732 104.851732 0 0 0 104.705496-109.677544V-128z"  horiz-adv-x="1024" />

    
    <glyph glyph-name="lianhe9" unicode="&#59196;" d="M988.152832-127.992686H154.842213A117.832301 117.832301 0 0 0 35.839634-6.064414V488.231484h79.359433v-494.295898a38.034014 38.034014 0 0 1 39.643146-40.667138h754.024328V758.492411a37.960872 37.960872 0 0 1-39.643145 40.593996H428.028833V880.420683h441.194563a117.832301 117.832301 0 0 0 119.002578-121.85513V-127.992686zM171.299238 559.54526V692.079171H35.839634V768.366626h135.386462V896h76.287455v-127.633374h124.341969v-76.287455h-124.341969V559.54526z"  horiz-adv-x="1024" />

    
    <glyph glyph-name="lianhe10" unicode="&#59197;" d="M149.35683-127.997806A120.173199 120.173199 0 0 0 28.452206-4.167479V895.997806h846.186087a120.173199 120.173199 0 0 0 120.904625-123.830327V-127.997806zM108.909004-4.167479a38.546121 38.546121 0 0 1 40.301541-41.252395H914.939835V772.167479a38.546121 38.546121 0 0 1-40.301542 41.252395H108.909004z m160.913596 74.824822a41.252395 41.252395 0 0 0 0 82.504789h242.174962a41.252395 41.252395 0 0 0 0-82.504789z m0 247.58751a38.546121 38.546121 0 0 0-40.301542 41.252395 38.546121 38.546121 0 0 0 40.301542 41.252395h463.796869a38.546121 38.546121 0 0 0 40.301542-41.252395 38.546121 38.546121 0 0 0-40.301542-41.252395z m0 247.587511a38.546121 38.546121 0 0 0-40.301542 41.252394 38.546121 38.546121 0 0 0 40.301542 41.252395h463.796869a38.546121 38.546121 0 0 0 40.301542-41.252395 38.546121 38.546121 0 0 0-40.301542-41.252394z"  horiz-adv-x="1024" />

    
    <glyph glyph-name="lianhe11" unicode="&#59198;" d="M0-128v104.228571h1063.497143V-128zM420.425143 650.313143L231.497143 307.053714 138.386286 471.771429 0 311.588571V471.259429l156.379429 181.248 73.874285-131.218286L436.736 896l189.001143-485.888 108.178286 227.693714h329.581714v-104.228571h-263.314286l-184.100571-386.486857z"  horiz-adv-x="1063" />

    
    <glyph glyph-name="lianhe12" unicode="&#59199;" d="M237.501277-128c-91.788777 0-135.606688 47.208078-135.606687 141.115709V617.073994H83.926704c-28.901175 0-49.835458 10.424764-49.835458 38.986923s21.103791 35.68151 49.750703 35.68151h213.750042a204.342327 204.342327 0 0 0 408.515146 0h207.22397c28.816421 0 70.006952-6.780334 70.006952-35.427247s-21.358053-38.986923-50.004966-38.986923h-25.426254l1.356067-604.043039c0-85.940738-27.884125-141.115709-136.793246-141.11571z m-73.058103 135.606688c0-59.327926 29.918225-66.447277 73.142857-66.447277h541.579209c32.460851 0 61.955305 7.034597 61.955306 66.532031V617.836782H164.697437z m204.427082 678.033438h271.213375A141.963251 141.963251 0 0 1 504.731206 822.772389a142.387022 142.387022 0 0 1-135.606688-136.623738z m-63.565635-547.088231V439.853004c0 29.324946 15.340507 42.37709 33.901672 42.37709s33.901672-12.713127 33.901672-42.37709v-301.301109c0-29.4097-15.340507-43.648403-33.901672-43.648402s-33.901672 14.408211-33.901672 43.648402z m156.201953 0V439.853004c0 29.324946 15.340507 42.37709 33.901672 42.37709s33.901672-13.052144 33.901672-42.37709v-301.216354c0-29.4097-15.340507-40.003973-33.901672-40.003973-18.476411-0.084754-33.816918 10.679027-33.816917 39.919218z m164.253601 0V439.853004c0 29.324946 15.340507 42.37709 33.901672 42.37709s33.901672-12.797881 33.901672-42.37709v-301.216354c0-29.4097-15.340507-39.325939-33.901672-39.32594-18.984936-0.084754-33.816918 10.000993-33.816918 39.241185z"  horiz-adv-x="1024" />

    
    <glyph glyph-name="yonghu" unicode="&#59200;" d="M500.622924 895.979522A259.194588 259.194588 0 0 0 763.035503 640.002925a262.485716 262.485716 0 0 0-524.752022 0A260.218494 260.218494 0 0 0 500.622924 895.979522z m0 0A259.194588 259.194588 0 0 0 763.035503 640.002925a262.485716 262.485716 0 0 0-524.752022 0A260.218494 260.218494 0 0 0 500.622924 895.979522zM403.059273 299.261508h219.408511a335.329341 335.329341 0 0 0 337.596562-331.16058v-20.770672c0-71.965992-151.976962-75.183983-339.132422-75.183984H403.059273C215.830676-127.926864 63.853714-127.926864 63.853714-52.742881v20.770673a335.695022 335.695022 0 0 0 339.205559 331.233716z"  horiz-adv-x="1024" />

    
    <glyph glyph-name="rili" unicode="&#59201;" d="M0-128V810.627058h170.599636V853.33181a42.631628 42.631628 0 1 0 85.33638 0v-42.631628h511.872032V853.33181a42.704752 42.704752 0 0 0 85.33638 0v-42.631628H1023.744064v-938.700182H0z m938.407684 682.691042H85.33638v-597.135288h853.071304V554.691042z m-725.17642-255.936016a42.631628 42.631628 0 1 0-42.631628-42.631628 42.631628 42.631628 0 0 0 42.631628 42.631628z m0-170.599636a42.631628 42.631628 0 1 0-42.631628-42.631628 42.631628 42.631628 0 0 0 42.631628 42.631628zM383.904024 469.427786a42.631628 42.631628 0 1 0-42.631628-42.631628 42.631628 42.631628 0 0 0 42.631628 42.631628z m0-170.599636a42.631628 42.631628 0 1 0-42.631628-42.631628 42.631628 42.631628 0 0 0 42.631628 42.631628z m0-170.599636a42.631628 42.631628 0 1 0-42.631628-42.631628 42.631628 42.631628 0 0 0 42.631628 42.33913z m170.599636 341.199272A42.631628 42.631628 0 1 0 511.872032 426.723034a42.631628 42.631628 0 0 0 42.631628 42.631627z m0-170.599636A42.631628 42.631628 0 1 0 511.872032 256.123398a42.631628 42.631628 0 0 0 42.631628 42.631628z m0-170.599636a42.631628 42.631628 0 1 0-42.631628-42.704752 42.631628 42.631628 0 0 0 42.631628 42.631628z m170.67276 341.199272a42.631628 42.631628 0 1 0-42.631628-42.631628 42.631628 42.631628 0 0 0 42.631628 42.631628z m0-170.599636a42.631628 42.631628 0 1 0-42.631628-42.631628 42.631628 42.631628 0 0 0 42.631628 42.631628z"  horiz-adv-x="1024" />

    
    <glyph glyph-name="mima" unicode="&#59202;" d="M287.864701 405.443035V566.77774a224.01097 224.01097 0 0 0 447.948806 0v-161.26157z m559.917724 51.194149V568.459833a336.053023 336.053023 0 0 1-671.886642 0V457.075991H64v-585.075991h895.824477V457.075991z"  horiz-adv-x="1024" />

    
    <glyph glyph-name="xiazai" unicode="&#59203;" d="M887.394747-127.945146H136.550399A132.820313 132.820313 0 0 0 0 0.852526V266.566291a33.131939 33.131939 0 0 0 34.155885 32.107994H51.197257a33.131939 33.131939 0 0 0 34.155885-32.107994v-245.308001a65.825045 65.825045 0 0 1 68.23863-63.704016h716.761602a66.337018 66.337018 0 0 1 68.23863 64.362266V266.566291a33.131939 33.131939 0 0 0 34.155885 32.107994h17.18765a33.131939 33.131939 0 0 0 34.155885-32.107994v-265.860043A132.747174 132.747174 0 0 0 887.394747-127.945146zM241.065943 462.578648a22.965627 22.965627 0 0 0 31.230327 0l197.475135-190.673214V862.648644c0 11.04398 1.755335 33.351356 24.647823 33.351356h34.521579c25.086656 0 24.7941-21.941682 24.7941-33.351356v-590.670071l196.158634 190.673214a22.819349 22.819349 0 0 0 31.084049 0l31.230327-29.255576a19.96693 19.96693 0 0 0 0-29.255576l-272.369408-262.495652a59.608235 59.608235 0 0 0-28.158492-8.557256 62.75321 62.75321 0 0 0-28.670464 8.557256L210.347589 403.994357a20.040069 20.040069 0 0 0 0 29.255576z m0 0"  horiz-adv-x="1024" />

    
    <glyph glyph-name="youhua" unicode="&#59175;" d="M512.033083 896A512.306407 512.306407 0 0 1 10.43911 280.862102a32.01915 32.01915 0 1 1 62.699247 12.839168 446.968436 446.968436 0 1 0 340.946845-347.051358 32.01915 32.01915 0 0 1-13.902534-62.462943A511.991336 511.991336 0 1 1 512.033083 895.960616z m256.980267-334.763566L100.392049 394.090955l256.783347-128.431057 80.934015-283.564432 330.825171 578.944049z"  horiz-adv-x="1024" />

    
    <glyph glyph-name="youjia" unicode="&#59176;" d="M348.800197 789.346462v-469.228308H318.198351a31.507692 31.507692 0 0 0-30.601846 32.019692v298.535385a132.726154 132.726154 0 1 1-265.216 0v-574.188308a109.292308 109.292308 0 0 1 30.759384-76.563692l108.307693-112.482462a48.443077 48.443077 0 0 1 70.892307 0 54.035692 54.035692 0 0 1 0 74.003693l-70.144 73.491692 51.712 56.477538a48.482462 48.482462 0 0 1 0 65.496616 40.96 40.96 0 0 1-30.759384 13.784615H124.544197V650.673231a30.601846 30.601846 0 1 0 61.164308 0v-298.692923a135.798154 135.798154 0 0 1 132.608-138.673231h30.601846v-256a83.574154 83.574154 0 0 1 81.683692-85.346462h428.228923a83.495385 83.495385 0 0 1 81.683692 85.346462V789.346462h10.24a53.405538 53.405538 0 0 1 0 106.653538H338.560197a53.405538 53.405538 0 0 1 0-106.653538h10.24z m445.046154-810.692924h-297.865846a45.764923 45.764923 0 0 0-44.859077 46.907077v226.146462a45.883077 45.883077 0 0 0 44.859077 46.907077h297.865846a45.764923 45.764923 0 0 0 44.859077-46.907077v-226.146462a45.843692 45.843692 0 0 0-44.977231-46.907077z m0 0"  horiz-adv-x="1024" />

    
    <glyph glyph-name="zhanghushezhi" unicode="&#59177;" d="M933.888 384a140.209231 140.209231 0 0 0 90.190769 130.875077 525.942154 525.942154 0 0 1-57.344 138.633846 140.051692 140.051692 0 0 0-185.107692 185.107692A524.366769 524.366769 0 0 1 642.875077 895.960615a139.972923 139.972923 0 0 0-261.710769 0 525.902769 525.902769 0 0 1-138.633846-57.344 140.051692 140.051692 0 0 0-185.107693-185.107692 518.459077 518.459077 0 0 1-57.462154-138.633846 139.972923 139.972923 0 0 0 0-261.710769 525.902769 525.902769 0 0 1 57.344-138.633846 140.051692 140.051692 0 0 0 185.107693-185.107693 524.406154 524.406154 0 0 1 138.752-57.344 139.972923 139.972923 0 0 0 261.710769 0 525.902769 525.902769 0 0 1 138.633846 57.344 140.051692 140.051692 0 0 0 185.107692 185.107693 518.459077 518.459077 0 0 1 57.462154 138.633846A140.209231 140.209231 0 0 0 933.888 384z m-421.809231-140.563692A140.563692 140.563692 0 1 0 652.642462 384a140.603077 140.603077 0 0 0-140.563693-140.563692z"  horiz-adv-x="1024" />

    
    <glyph glyph-name="chakan" unicode="&#59178;" d="M1159.798154-65.575385l-110.276923 110.276923a276.795077 276.795077 0 0 1 51.2 154.151385 261.513846 261.513846 0 0 1-146.825846 234.889846V749.371077a147.259077 147.259077 0 0 1-146.825847 146.825846H146.786462A147.259077 147.259077 0 0 1-0.039385 749.371077v-660.637539a147.259077 147.259077 0 0 1 146.825847-146.825846h697.344a276.795077 276.795077 0 0 1 154.151384 51.2l110.276923-110.276923a36.352 36.352 0 0 1 51.2 51.2zM249.422769 675.800615h440.438154a36.706462 36.706462 0 1 0 0-73.412923H249.422769a34.658462 34.658462 0 0 0-36.706461 36.706462 39.384615 39.384615 0 0 0 36.706461 36.706461z m154.151385-513.851077H256.905846a36.706462 36.706462 0 0 0 0 73.412924h146.825846a34.658462 34.658462 0 0 0 36.706462-36.706462 39.384615 39.384615 0 0 0-36.706462-36.706462z m73.412923 220.199385H256.905846a36.706462 36.706462 0 0 0 0 73.412923h220.199385a34.658462 34.658462 0 0 0 36.706461-36.706461 39.384615 39.384615 0 0 0-36.706461-36.667077z m183.492923-183.532308a183.532308 183.532308 0 1 0 183.532308-183.532307 181.720615 181.720615 0 0 0-183.37477 183.571692z"  horiz-adv-x="1170" />

    
    <glyph glyph-name="yongchuanzhuangzhi" unicode="&#59179;" d="M141.075862 896h158.916801v-211.928452H105.787274V860.553873A35.209819 35.209819 0 0 0 141.075862 896z m79.438708-158.916801h35.446127v35.446127h-35.446127z m-70.577176 0h35.446126v35.446127h-35.446126v-35.446127z m70.577176 70.655946h35.446127v35.446126h-35.446127z m-70.577176 0h35.446126v35.446126h-35.446126v-35.446126zM335.281251 896h547.445733a35.446127 35.446127 0 0 0 35.446126-35.446127v-176.482325h-582.891859z m352.925267-61.794414a44.15012 44.15012 0 1 1 0-88.260855h123.588828a44.15012 44.15012 0 1 1 0 88.260855zM105.787274-30.955595V648.743575h812.149529v-679.777939H105.787274z m90.348238 565.562642a30.129208 30.129208 0 0 1-30.129208-30.129207v-391.522161a30.129208 30.129208 0 0 1 60.219031 0V504.47784a30.129208 30.129208 0 0 1-30.129208 30.129207zM105.787274-66.244183h812.149529v-26.308903a35.249204 35.249204 0 0 0-35.446127-35.446126H141.115247a35.249204 35.249204 0 0 0-35.446127 35.446126v26.427057z"  horiz-adv-x="1024" />

    
    <glyph glyph-name="jisuan" unicode="&#59180;" d="M958.134351 896H66.151582A70.892308 70.892308 0 0 1 0.182351 821.996308v-708.68677a71.876923 71.876923 0 0 1 65.969231-76.72123h276.125538v-103.266462h-244.184615V-128h830.503384v61.282462h-244.184615v103.305846h273.683692a71.837538 71.837538 0 0 1 65.890462 76.72123V821.996308A69.238154 69.238154 0 0 1 958.134351 896zM342.27712 203.342769l-112.285538-0.748307 0.748307 222.483692h111.537231z m228.076308 0h-114.215385V712.192h114.215385z m228.076307 0h-114.215384V542.483692h114.215384z"  horiz-adv-x="1024" />

    
    <glyph glyph-name="cesuan1" unicode="&#59182;" d="M989.636455 302.672458l-171.201367 100.349916a67.385677 67.385677 0 0 1-68.44904 0L578.942216 302.672458a69.827473 69.827473 0 0 1-34.263904-60.217826v-200.542296a69.748705 69.748705 0 0 1 34.263904-60.217827l171.201367-100.349915a67.385677 67.385677 0 0 1 68.44904 0l171.201367 100.349915A69.827473 69.827473 0 0 1 1023.979127 41.912336v200.542296a69.748705 69.748705 0 0 1-34.342672 60.217826z m-116.339737-255.994683h-171.161984a34.736509 34.736509 0 0 0 0 69.473019h171.201367a34.736509 34.736509 0 0 0 0-69.473019z m0 121.577783h-171.161984a34.736509 34.736509 0 0 0 0 69.473018h171.201367a34.736509 34.736509 0 0 0 0-69.473018z m-155.88107 297.229519a69.827473 69.827473 0 0 1 34.303287 60.217826V726.205816a69.748705 69.748705 0 0 1-34.303287 60.217826L546.253664 886.655406a67.385677 67.385677 0 0 1-68.44904 0L306.603257 786.305491a69.827473 69.827473 0 0 1-34.303288-60.217827v-200.542296a69.748705 69.748705 0 0 1 34.303288-60.217826l171.201367-100.349916a67.346294 67.346294 0 0 1 68.44904 0zM511.98976 504.278117a34.500207 34.500207 0 0 0-34.263904 34.73651V591.119391h-51.474623a34.736509 34.736509 0 0 0 0 69.473018h51.43524V712.736557a34.303288 34.303288 0 1 0 68.567191 0v-52.06538h51.435239a34.736509 34.736509 0 0 0 0-69.473019H546.253664v-52.104764a34.500207 34.500207 0 0 0-34.263904-34.815277z m-66.952455-201.605659l-171.201368 100.349916a67.385677 67.385677 0 0 1-68.44904 0L34.264298 302.672458A69.827473 69.827473 0 0 1 0.000394 242.454632v-200.542296a69.748705 69.748705 0 0 1 34.263904-60.217827l171.201367-100.349915a67.385677 67.385677 0 0 1 68.44904 0l171.1226 100.349915a69.827473 69.827473 0 0 1 34.263903 60.217827v200.542296a69.630554 69.630554 0 0 1-34.263903 60.217826z m-119.88428-195.304251H154.148577a34.736509 34.736509 0 0 0 0 69.473019h171.201367a34.736509 34.736509 0 0 0 0-69.473019z"  horiz-adv-x="1024" />

    
    <glyph glyph-name="fenxi1" unicode="&#59183;" d="M285.577846-128a31.822769 31.822769 0 1 0 0 63.645538h452.923077a31.822769 31.822769 0 1 0 0-63.645538zM893.794462 896H130.087385A127.291077 127.291077 0 0 1 2.796308 768.551385v-587.657847a127.291077 127.291077 0 0 1 127.291077-127.291076h763.785846a127.291077 127.291077 0 0 1 127.291077 127.291076V768.551385A127.330462 127.330462 0 0 1 893.873231 896z m-46.473847-260.214154l-245.326769-288.649846a29.144615 29.144615 0 0 0-3.308308-3.584 44.583385 44.583385 0 0 0-63.015384 1.732923l-138.555077 146.707692-174.907077-158.64123a31.901538 31.901538 0 0 0-42.771692 47.261538l188.84923 171.323077a44.544 44.544 0 0 0 62.385231-2.363077l136.704-144.856615 231.620923 272.462769a31.822769 31.822769 0 1 0 48.482462-41.235692z"  horiz-adv-x="1024" />

    
    <glyph glyph-name="lianhe1" unicode="&#59184;" d="M687.340308-128v36.864h304.167384v304.167385h36.864V-128zM531.692308-128H0V403.692308h164.430769V737.043692h329.452308V896h531.692308v-531.692308h-158.72v-329.491692H531.692308V-128z m-11.815385 461.627077l66.441846-39.384615a94.523077 94.523077 0 0 1 11.342769-80.226462 95.192615 95.192615 0 0 1 17.762462-19.968A94.523077 94.523077 0 1 1 602.584615 324.923077l-73.13723 43.323077v71.719384a94.168615 94.168615 0 1 1-34.540308 1.10277v-72.467693l-69.395692-40.96a94.011077 94.011077 0 1 1 17.368615-29.892923l60.809846 35.879385z m-233.432615-64.590769a66.717538 66.717538 0 0 0 3.938461 20.243692 67.190154 67.190154 0 0 1-3.938461-20.243692z m457.255384 3.229538a67.465846 67.465846 0 0 1-134.380307 0 67.465846 67.465846 0 0 0 134.380307 0z m-344.221538 43.559385a67.426462 67.426462 0 0 1-73.491692 11.815384l1.654153 0.708923a67.505231 67.505231 0 0 0 93.459693-56.044307 67.308308 67.308308 0 0 1-21.504 43.52z m-93.302154-1.969231a68.174769 68.174769 0 0 0 10.003692 8.231385q2.126769 1.457231 4.371693 2.717538a68.371692 68.371692 0 0 1-22.60677-20.952615 68.135385 68.135385 0 0 0 8.349539 10.003692zM515.268923 600.615385a67.426462 67.426462 0 0 1-44.228923-16.541539 67.505231 67.505231 0 0 0 110.276923-36.864A67.780923 67.780923 0 0 1 515.268923 600.615385zM0 562.648615V896h333.390769v-36.864H36.864v-296.487385z"  horiz-adv-x="1028" />

    
    <glyph glyph-name="chushihua" unicode="&#59185;" d="M658.274208 383.999803A146.274405 146.274405 0 1 1 511.999803 237.725398 146.274405 146.274405 0 0 1 658.274208 383.999803zM511.999803 895.999606A510.818265 510.818265 0 0 1 18.274455 511.999754l143.556867-28.711374A365.016475 365.016475 0 1 0 511.999803 18.274405a359.975246 359.975246 0 0 0-244.538983 96.531655l98.461501 122.879953H0L73.137203-128l102.39996 127.999951A511.448419 511.448419 0 1 1 511.999803 895.999606z"  horiz-adv-x="1024" />

    
    <glyph glyph-name="lianhe2" unicode="&#59186;" d="M980.262197-103.709969l-154.912922 182.391757a81.176733 81.176733 0 0 0-23.975087 55.115144 289.315136 289.315136 0 1 0 32.281727 32.360463 81.334205 81.334205 0 0 0 55.115143-23.975088l182.037446-155.070393a66.098804 66.098804 0 0 0 5.550882-96.372765 62.240744 62.240744 0 0 0-44.249586-18.306101 70.193072 70.193072 0 0 0-51.847603 23.856983zM421.827688 353.627619A192.273115 192.273115 0 1 1 614.140171 546.097574a192.391219 192.391219 0 0 1-192.312483-192.469955z m-353.603014-409.426781a67.358579 67.358579 0 0 0-67.319211 67.201107L0 896h1033.960094v-728.307255l-73.933029 65.311446V697.270539H74.799123v-673.192111h632.603745l59.05194-80.192534z"  horiz-adv-x="1095" />

    
    <glyph glyph-name="moxing" unicode="&#59187;" d="M1122.185846 365.489231l-263.286154 120.989538V755.357538L560.482462 896 266.476308 740.548923v-252.849231L0 350.680615v-336.108307L297.432615-128l298.220308 167.778462 263.286154-140.642462 263.246769 140.642462zM297.432615 224.413538l-205.193846 99.800616 205.193846 99.84 209.053539-98.816z m230.4-148.125538l-197.474461-109.449846V162.264615l197.474461 94.523077z m32.452923 536.772923L338.195692 718.336l222.089846 108.780308 230.833231-108.780308z m35.446154-64.315077l195.426462 94.523077v-158.916923l-195.426462-96.649846z m233.235693-324.292923l-204.169847 99.800615 195.544616 99.84 212.913231-99.84z m225.516307-154.624l-193.614769-102.990769V162.264615l193.614769 94.523077z m0 0"  horiz-adv-x="1122" />

    
    <glyph glyph-name="lianhe3" unicode="&#59188;" d="M79.556923 128v512L512 896l432.443077-256v-512L512-128zM141.981538 602.860308v-437.720616l370.215385-219.529846 369.979077 219.529846V602.899692L512 822.390154z m401.211077-236.307693l-62.38523 37.139693-291.997539 172.937846L512 768l324.489846-192v-384l-293.257846-173.292308z m-355.643077-174.710153V503.689846l293.257847-173.292308v-311.689846zM512 896z"  horiz-adv-x="1024" />

    
    <glyph glyph-name="lujing" unicode="&#59189;" d="M784.38038-128H32.058929A32.019545 32.019545 0 0 0 0-95.980455V864.448343a31.507547 31.507547 0 0 0 32.058929 31.507546H992.487727a31.27124 31.27124 0 0 0 31.507547-31.507546v-752.242682z m-112.206252 271.358748a16.029464 16.029464 0 0 1-16.068848 15.99008H143.91072a16.029464 16.029464 0 0 1-16.029464-15.99008v-127.526796a16.029464 16.029464 0 0 1 16.029464-15.990081h512.19456a16.029464 16.029464 0 0 1 16.068848 15.990081v127.56618z m224.018659 608.76519a15.99008 15.99008 0 0 1-15.99008 15.99008H143.91072a16.029464 16.029464 0 0 1-16.029464-15.99008v-367.968763a16.029464 16.029464 0 0 1 16.029464-15.99008h736.252602a15.99008 15.99008 0 0 1 15.99008 15.99008V752.163322z m-64.511702-319.88037a15.99008 15.99008 0 0 0-15.99008-15.99008h-95.979865a15.99008 15.99008 0 0 0-15.99008 15.99008V528.10528a15.99008 15.99008 0 0 0 15.99008 15.99008h95.861711a15.99008 15.99008 0 0 0 15.99008-15.99008z"  horiz-adv-x="1024" />

    
    <glyph glyph-name="lianhe4" unicode="&#59190;" d="M467.644897-127.960621a14.68836 14.68836 0 0 1-3.071561 1.102611c-17.326752 2.047707-34.929156 2.953424-52.019634 6.143122a487.866198 487.866198 0 0 0-308.179907 190.751784 504.877917 504.877917 0 0 0-99.628822 243.874031c-1.811433 13.585749-3.189697 27.210876-4.725478 40.639108v59.068472c0.511927 2.953424 1.102611 5.906847 1.457023 8.939029 2.953424 22.091608 4.489204 44.537628 8.939028 66.353583A507.319414 507.319414 0 0 0 196.914401 792.365548 473.059701 473.059701 0 0 0 428.738463 891.009896c12.916306 1.772054 25.91137 3.189697 38.906434 4.882993h57.414554c2.362739-0.511927 4.725478-1.14199 7.088217-1.457022 22.642914-3.386592 45.325207-6.891322 68.0075-9.923503 5.631194-0.708822 6.851943-3.189697 7.166975-8.584618a844.91542 844.91542 0 0 1 27.092739-170.235336c4.489204-16.61793 9.411576-33.078344 14.333949-50.483854-22.01285 0-43.316879-0.275653-64.620908 0-5.946226 0-8.308965-2.047707-10.238535-7.678901-17.681163-52.846593-35.756115-105.575048-53.752309-158.303504l-23.627389-70.015829c-1.772054 5.04051-3.071561 8.466481-4.174172 11.813695q-35.441083 107.977166-70.527755 216.03309a9.608471 9.608471 0 0 1-10.868599 8.11207c-34.732261-0.39379-69.503902 0-104.157405 0-2.638392 0-5.198026-0.315032-9.096545-0.511926l94.824587-226.547279H297.252045l3.189698-79.348647h107.740892c2.874666 0 7.245733 0 8.308965-1.772054a58.438408 58.438408 0 0 0 13.073822-50.759507H297.685214v-76.473981h133.888536v-106.598902h115.18352v107.110828h130.344427v76.55274H547.387334a51.192676 51.192676 0 0 0 5.709952 37.055621 22.485398 22.485398 0 0 0 24.887516 15.357803c30.085542-1.220748 60.131704-0.39379 90.217246-0.315032 2.874666 0 5.749331 0.315032 8.584618 0.433169v79.23051h-76.55274l70.606513 168.423902c2.165844-4.528583 3.662245-7.442627 4.922373-10.317293a753.556183 753.556183 0 0 1 290.144333-342.990926 8.742134 8.742134 0 0 0 4.213551-12.168105A507.988857 507.988857 0 0 0 793.505966-25.57527a474.831755 474.831755 0 0 0-230.36704-97.659873c-12.601274-1.732675-25.320685-3.189697-38.079475-4.725478z m465.302041 444.037392l34.220335 43.316879c16.184761 20.47707 32.369523 40.95414 48.633041 61.234316a103.921131 103.921131 0 0 0 7.875797 7.875796v-43.710669c-11.538041-14.097675-23.154841-28.155972-34.574746-42.253647s-23.154841-29.061688-34.929156-43.907564z m-48.751179 87.34258l132.077103 184.096737c2.835287-11.144252 5.434299-20.595207 7.560765-30.282437a10.396051 10.396051 0 0 0-2.126465-6.57629l-116.36489-162.280781-3.189697-4.410446z m-63.715191 88.248297l147.6318 205.873313c4.213551-7.875796 8.308965-14.924634 11.538042-22.288503a11.22301 11.22301 0 0 0-1.732675-8.387723Q937.436142 609.962107 896.639517 553.295753l-55.130573-76.867771-6.024984-7.875796z m-50.286959 101.755287a11.419905 11.419905 0 0 0 2.362739 8.308965c24.454347 34.495987 49.066211 68.716322 73.638695 103.015415l57.217659 79.584921 18.193089-19.177564-140.779857-196.107326c-4.016656 8.939029-7.797038 16.421035-10.632325 24.375589zM727.861204 713.568206a9.096545 9.096545 0 0 0 2.047707 5.749332l93.91887 131.250144 21.304029-14.924634L736.406443 684.033971c-3.229076 10.671704-6.143121 20.004522-8.545239 29.534235zM703.918784 857.695277a7.403248 7.403248 0 0 0 1.299506 4.489204 1193.183129 1193.183129 0 0 0 23.036704 31.818217 5.631194 5.631194 0 0 0 5.434299 1.890191c6.733806-2.362739 13.388854-5.39492 21.225271-8.623997l-46.821608-65.68414c-1.53578 13.506991-2.914045 24.769379-4.174172 36.110525z m-236.273887 38.197612z"  horiz-adv-x="1024" />

    
    <glyph glyph-name="lianhe5" unicode="&#59191;" d="M0-128v317.400615a48.561231 48.561231 0 0 0 6.813538 24.615385L161.476923 582.931692V847.36A48.836923 48.836923 0 0 0 209.801846 896H1023.606154a48.797538 48.797538 0 0 0 48.403692-48.64v-279.630769l143.005539-350.168616a48.009846 48.009846 0 0 0 9.13723-28.317538V-128z m426.496 366.040615a45.252923 45.252923 0 0 0 39.384615-20.834461l43.795693-62.542769a132.056615 132.056615 0 0 1 106.062769-55.611077 128.866462 128.866462 0 0 1 106.062769 55.611077l43.795692 62.542769a51.2 51.2 0 0 0 39.384616 20.834461H1012.184615V835.780923H221.302154v-597.740308z m691.318154 0l-45.804308 115.908923v-115.908923z m-956.455385 0v121.304616l-50.569846-121.304616z m290.500923 113.506462v4.647385L472.615385 488.251077 378.092308 580.923077a29.459692 29.459692 0 0 0 0 41.708308 37.100308 37.100308 0 0 0 16.147692 9.255384l131.426462 20.834462 57.619692 120.477538a27.923692 27.923692 0 0 0 50.727384 0l59.943385-118.153846 131.426462-16.226461a28.790154 28.790154 0 0 0 25.363692-32.452924 23.630769 23.630769 0 0 0-9.216-16.226461l-94.523077-97.319385 23.04-129.732923a26.624 26.624 0 0 0-11.539692-27.805538 28.238769 28.238769 0 0 0-29.971693-2.323693l-117.563077 60.219077-115.278769-62.542769a19.889231 19.889231 0 0 0-13.824-6.931692 30.247385 30.247385 0 0 0-30.011077 27.844923z"  horiz-adv-x="1224" />

    
    <glyph glyph-name="lianhe6" unicode="&#59192;" d="M569.141305-127.842487l-43.316163 3.937833h-12.246661a12.246661 12.246661 0 0 0-4.686021 3.504672 22.760675 22.760675 0 0 0-7.009343 18.114031 23.942025 23.942025 0 0 0 7.600018 16.932682l43.316163 42.607353a5.827993 5.827993 0 0 1 0 7.600018l-15.160657 15.160657-42.607353 43.316163h-7.600018l-43.788703-43.316163a27.997993 27.997993 0 0 0-16.932682-7.600018 22.17 22.17 0 0 0-16.932682 7.009343 35.637389 35.637389 0 0 0-5.237317 7.600018 21.028028 21.028028 0 0 0 0 11.813499l-2.913997 28.037371V41.484332a78.205363 78.205363 0 0 0 21.028028 58.358685 77.063392 77.063392 0 0 0 58.358685 26.265346h8.190693l89.900727-8.741989 36.779361 36.188685 10.514014 10.514015 169.878115 166.92474-6.418667 89.900728a80.568063 80.568063 0 0 0 79.386713 84.072734h1.732646l43.316163-3.937833h12.246661a29.218721 29.218721 0 0 0 4.686021-3.937833 23.35135 23.35135 0 0 0 2.913997-29.770017 14.018685 14.018685 0 0 0-3.504672-5.237318l-43.316163-42.607353s-2.913996-5.237318 0-7.009343l48.435346-49.616696 9.332664-9.332664h2.913997a6.418668 6.418668 0 0 1 3.937833 0l44.379378 43.316163a23.35135 23.35135 0 0 0 18.114032 7.600018 22.17 22.17 0 0 0 16.932681-7.009343 35.440497 35.440497 0 0 0 5.237318-7.600018 19.689165 19.689165 0 0 0 0-11.813499l3.937833-44.930674a78.205363 78.205363 0 0 0-21.028028-58.358685 79.977388 79.977388 0 0 0-58.358685-26.265346H952.961887l-89.900727 8.741989-34.456039-33.865364-10.514014-9.923339-149.440762-147.078062-20.437353-20.437354 6.418667-89.900727a79.386713 79.386713 0 0 0-21.579324-58.358685A81.11936 81.11936 0 0 0 574.929919-127.842487z m-300.614171 209.532094a31.502664 31.502664 0 0 1-32.684014 0l-43.788703-28.037371a29.770017 29.770017 0 0 0-37.370035 3.937833l-29.179343 29.179343a29.770017 29.770017 0 0 0-3.937833 37.370035l28.037371 44.930674a30.360692 30.360692 0 0 1 0 32.093339 381.733531 381.733531 0 0 0-53.121367 129.00341 29.179343 29.179343 0 0 1-22.17 23.351349L23.357651 364.780422A29.770017 29.770017 0 0 0 0.006302 394.550439v41.465382a29.179343 29.179343 0 0 0 23.351349 29.179342l51.191829 11.813499a30.360692 30.360692 0 0 1 22.760675 22.760675A391.65687 391.65687 0 0 0 149.447064 628.221449a30.360692 30.360692 0 0 1 0 32.684014L122.079125 704.536653a29.770017 29.770017 0 0 0 3.937833 37.370035l29.179342 29.179342a29.770017 29.770017 0 0 0 37.370035 3.937833l44.379378-28.03737a29.179343 29.179343 0 0 1 32.093339 0 403.352234 403.352234 0 0 0 129.003409 52.530692 28.588668 28.588668 0 0 1 23.35135 22.17L433.167932 872.642744A29.179343 29.179343 0 0 0 462.307896 895.994093h43.788703a30.360692 30.360692 0 0 0 29.770017-23.351349l11.104689-51.191829a30.951367 30.951367 0 0 1 23.35135-22.760675 384.647527 384.647527 0 0 0 128.373356-53.908934 29.179343 29.179343 0 0 1 32.093339 0l44.379378 28.037371a30.360692 30.360692 0 0 0 37.370035-4.686021l29.770017-29.179343a29.770017 29.770017 0 0 0 3.937833-37.370035l-28.588667-44.379378a30.360692 30.360692 0 0 1 0-32.093339 361.965609 361.965609 0 0 0 37.370035-77.063392 123.175416 123.175416 0 0 1-80.449928-37.96071 120.812716 120.812716 0 0 1-32.684014-91.042699l3.937833-69.463374L590.681251 196.123034l-32.684013-32.093339-69.463375 7.009343H476.484095a123.175416 123.175416 0 0 1-90.570159-40.284032 119.670745 119.670745 0 0 1-31.502664-91.082077 377.638185 377.638185 0 0 0-85.884138 42.016678z m70.644724 331.565539a130.736056 130.736056 0 1 1 130.736055 130.736055 130.736056 130.736056 0 0 1-130.775434-130.736055z"  horiz-adv-x="1041" />

    
    <glyph glyph-name="lianhe7" unicode="&#59193;" d="M546.426486-121.816615a151.433846 151.433846 0 0 0-55.926154 260.371692 150.370462 150.370462 0 0 0 45.64677 26.584615 188.140308 188.140308 0 0 0-1.142154 22.921846 217.796923 217.796923 0 0 0 132.371692 198.931693 202.161231 202.161231 0 0 0 72.349538 16.265846 76.918154 76.918154 0 0 0 10.279385 0 218.112 218.112 0 0 0 91.293539-20.164923 267.303385 267.303385 0 0 0 33.988923-20.401231 216.615385 216.615385 0 0 0 56.398769-59.825231 164.864 164.864 0 0 0 53.641846 9.176616 172.504615 172.504615 0 0 0 169.353846-139.815385A151.433846 151.433846 0 0 0 1126.837563-128h-538.781538a143.044923 143.044923 0 0 0-41.629539 6.183385z m-108.859077-5.041231c-229.848615 0-414.72 64.196923-435.278769 150.134154A14.848 14.848 0 0 0 0.004332 31.507692V175.261538c66.638769-45.843692 197.907692-84.795077 388.017231-90.584615a209.053538 209.053538 0 0 1-9.924923-60.731077 211.298462 211.298462 0 0 1 63.015385-150.803692zM1.146486 237.331692v166.833231a356.352 356.352 0 0 1 87.197539-41.708308 1030.262154 1030.262154 0 0 1 303.261538-47.261538h113.664a275.692308 275.692308 0 0 1-30.562461-114.609231 202.909538 202.909538 0 0 1-62.779077-63.488c-207.872 3.741538-365.134769 50.254769-410.781539 100.233846z m388.765539 131.544616c-196.923077 7.089231-344.182154 52.027077-389.907693 100.391384v165.021539c85.149538-58.446769 265.452308-89.875692 437.563077-89.875693s352.413538 31.507692 437.169231 89.836308v-165.021538a127.409231 127.409231 0 0 0-29.459692-22.921846 279.079385 279.079385 0 0 1-96.33477 17.644307 273.408 273.408 0 0 1-203.657846-91.766154 1203.987692 1203.987692 0 0 0-60.258461-3.426461zM0.004332 697.304615v40.566154a19.180308 19.180308 0 0 0 2.520616 8.704C22.847409 821.76 173.020948 896 437.567409 896s415.625846-74.476308 435.239385-150.134154a16.187077 16.187077 0 0 0 2.284308-7.876923v-40.566154c-49.545846-52.145231-215.473231-100.036923-437.523693-100.036923S49.747102 645.277538 0.004332 697.304615z"  horiz-adv-x="1278" />

    
    <glyph glyph-name="jianqu" unicode="&#59194;" d="M512.02306-128a520.127959 520.127959 0 0 0-52.331748 2.638245 513.158268 513.158268 0 0 0-50.83543 7.875357 512.055718 512.055718 0 0 0-96.079356 29.808226 502.526536 502.526536 0 0 0-86.943942 47.173389 507.01549 507.01549 0 0 0-75.721559 62.490959c-11.537398 11.537398-22.641652 23.626071-33.037123 36.344773s-20.318421 25.870548-29.453835 39.376785a514.575832 514.575832 0 0 0-64.499175 133.959824 508.748068 508.748068 0 0 0-12.600571 49.063475 513.158268 513.158268 0 0 0-7.875357 50.83543 519.773568 519.773568 0 0 0 0 104.663496 513.197645 513.197645 0 0 0 7.875357 50.83543 512.055718 512.055718 0 0 0 29.808226 96.079356 502.526536 502.526536 0 0 0 47.173389 86.943943 515.717759 515.717759 0 0 0 180.424431 163.846804A513.237022 513.237022 0 0 0 408.855882 885.400951a513.197645 513.197645 0 0 0 50.83543 7.875357 519.773568 519.773568 0 0 0 104.663496 0 513.158268 513.158268 0 0 0 50.83543-7.875357 512.055718 512.055718 0 0 0 96.079357-29.808227 502.526536 502.526536 0 0 0 86.943942-47.173389 515.717759 515.717759 0 0 0 163.846804-180.424431 513.237022 513.237022 0 0 0 38.746757-91.74791c4.922098-15.868845 9.253545-32.564602 12.600572-49.063475a513.158268 513.158268 0 0 0 7.875357-50.83543 519.576684 519.576684 0 0 0 0-104.663496 513.158268 513.158268 0 0 0-7.875357-50.83543 512.055718 512.055718 0 0 0-29.808227-96.079356 502.526536 502.526536 0 0 0-47.173389-86.943942 507.01549 507.01549 0 0 0-62.490959-75.721559c-11.537398-11.537398-23.626071-22.641652-36.344773-33.037123s-25.870548-20.318421-39.376785-29.453835-27.800011-17.798307-42.211914-25.634288a513.237022 513.237022 0 0 0-91.74791-38.746757 508.748068 508.748068 0 0 0-49.063475-12.600571 513.158268 513.158268 0 0 0-50.83543-7.875357A520.127959 520.127959 0 0 0 512.02306-128zM186.180161 402.759691a18.467712 18.467712 0 0 1-18.113322-22.208507 343.877467 343.877467 0 0 1 653.930276-145.182208 18.507089 18.507089 0 0 1-8.662892 24.649868 18.310205 18.310205 0 0 1-7.875357 1.811332 18.467712 18.467712 0 0 1-16.656381-10.474225 307.138927 307.138927 0 0 0-334.348285-168.808279A304.973203 304.973203 0 0 0 350.972008 122.830123a308.989636 308.989636 0 0 0-111.003159 119.0754 304.540059 304.540059 0 0 0-32.918992 106.868595l79.068585-51.189821a18.388959 18.388959 0 0 1 10.001704-2.992635 18.467712 18.467712 0 0 1 10.001703 34.021542L197.008777 399.176404l-1.063174 0.669405a18.428336 18.428336 0 0 1-9.765442 2.913882z m249.333805-86.628928a62.057814 62.057814 0 0 1-13.191223-1.260057 27.957518 27.957518 0 0 1-9.450429-3.937678 16.223236 16.223236 0 0 1-5.670257-6.260909 19.334002 19.334002 0 0 1-1.890085-8.741647 18.62522 18.62522 0 0 1 1.890085-8.584139 16.065728 16.065728 0 0 1 5.670257-6.142778 28.469416 28.469416 0 0 1 9.489806-3.701418 63.829769 63.829769 0 0 1 13.269976-1.220681h48.000302v-54.024949a87.573971 87.573971 0 0 1 1.811332-18.979611 39.770553 39.770553 0 0 1 5.473373-13.545614 23.626071 23.626071 0 0 1 9.135414-8.111618 28.705677 28.705677 0 0 1 12.797456-2.716998 27.957518 27.957518 0 0 1 12.600571 2.716998 23.389811 23.389811 0 0 1 9.017284 8.111618 40.124944 40.124944 0 0 1 5.39462 13.545614 88.834028 88.834028 0 0 1 1.811332 18.979611v53.985573h48.275939a63.002857 63.002857 0 0 1 13.191223 1.22068 28.193778 28.193778 0 0 1 9.411052 3.701418 16.026352 16.026352 0 0 1 5.63088 6.142778 18.74335 18.74335 0 0 1 1.890086 8.58414 19.688393 19.688393 0 0 1-1.890086 8.781023 16.262612 16.262612 0 0 1-5.63088 6.260909 27.839387 27.839387 0 0 1-9.411052 3.937678 61.624669 61.624669 0 0 1-13.191223 1.260057h-48.118432v92.220432h48.315316a61.624669 61.624669 0 0 1 13.191223 1.260057 27.839387 27.839387 0 0 1 9.411051 3.937678 16.262612 16.262612 0 0 1 5.630881 6.260909 19.688393 19.688393 0 0 1 1.890085 8.781024 18.74335 18.74335 0 0 1-1.890085 8.584139 16.065728 16.065728 0 0 1-5.630881 6.142778 28.193778 28.193778 0 0 1-9.411051 3.701418 63.002857 63.002857 0 0 1-13.191223 1.22068h-27.130606l61.545916 89.149043a130.809681 130.809681 0 0 1 8.426632 15.750714 33.982166 33.982166 0 0 1 2.677622 13.663744 21.420971 21.420971 0 0 1-6.733431 15.750715 22.326637 22.326637 0 0 1-7.875357 4.882721 27.56375 27.56375 0 0 1-9.686689 1.614448h-0.630029a26.697461 26.697461 0 0 1-12.285557-2.992635 29.217575 29.217575 0 0 1-9.05666-7.59972 97.615051 97.615051 0 0 1-7.48159-11.104254c-2.520114-4.252693-4.961475-8.466009-7.245328-12.521817l-61.7428-89.582187-68.909374 95.843096a115.295228 115.295228 0 0 1-15.750714 21.342217 22.051 22.051 0 0 1-7.875358 4.961475 28.036271 28.036271 0 0 1-9.844196 1.653825 26.815591 26.815591 0 0 1-9.686689-1.693202 22.247884 22.247884 0 0 1-12.758079-12.876208 28.351286 28.351286 0 0 1-1.693201-10.001704 27.209359 27.209359 0 0 1 2.362607-11.340514 162.783631 162.783631 0 0 1 10.001703-17.089525l63.869146-87.888985h-27.012475a63.829769 63.829769 0 0 1-13.269976-1.22068 28.508793 28.508793 0 0 1-9.489806-3.701418 16.105105 16.105105 0 0 1-5.670257-6.142779 18.62522 18.62522 0 0 1-1.890085-8.584139 20.436552 20.436552 0 0 1 1.181303-7.205952 15.750714 15.750714 0 0 1 3.622664-5.591503 22.720405 22.720405 0 0 1 10.001704-5.473374 57.56886 57.56886 0 0 1 15.514453-1.811332h48.039679v-92.338562h-48.157809z m291.742604 157.78278a18.467712 18.467712 0 0 1-9.568559-34.257804l108.52242-70.169431a18.310205 18.310205 0 0 1 11.064877-3.701418 18.467712 18.467712 0 0 1 18.428336 19.688392A343.877467 343.877467 0 0 1 210.081869 548.886942a18.467712 18.467712 0 1 1 32.446472-17.680177A306.627028 306.627028 0 0 0 716.782345 612.283567a308.792752 308.792752 0 0 0 66.940535-86.23516 304.500682 304.500682 0 0 0 33.0765-106.711089l-79.029209 51.189821a18.388959 18.388959 0 0 1-10.513601 3.18952z"  horiz-adv-x="1024" />

    
    <glyph glyph-name="duibi" unicode="&#58881;" d="M701.061209 584.321821 289.070783 170.230472l0-334.446974c0-26.380343 21.284353-47.783499 47.536515-47.783499L1065.530751-212c26.258414 0 47.542768 21.403156 47.542768 47.783499L1113.073519 170.230472 701.070588 584.321821 701.061209 584.321821zM1047.422793-146.377412 701.061209-146.377412 701.061209 491.271555l346.361585-348.112354L1047.422793-146.377412 1047.422793-146.377412zM1195.294026 334.846563l0.10317 0.106297L735.832739 796.793317c-7.565825 8.14733-17.932881 13.652875-29.566118 14.919056-0.050022 0.006253-0.090665 0.012505-0.134434 0.025011-0.71594 0.06878-1.425626 0.121929-2.144692 0.159445-0.134434 0.009379-0.262615 0.025011-0.403302 0.031264-0.825363 0.046896-1.653852 0.071907-2.497973 0.071907l-0.018758 0c-13.471545 0-25.617508-5.639979-34.268184-14.678325L208.597919 336.800547c-8.997704-8.691319-14.606419-20.906062-14.606419-34.446388 0-26.383469 21.284353-47.774119 47.539641-47.774119 13.011968 0 24.795271 5.261687 33.380294 13.762298l0.021885-0.021885L701.070588 696.611792l1.216159-1.150506L702.277368 695.436276l426.00596-427.931806c8.500611-7.953495 19.802452-12.92443 32.326706-12.92443 26.255288 0 47.542768 21.39065 47.542768 47.780372C1208.149675 314.95032 1203.200625 326.324068 1195.294026 334.846563L1195.294026 334.846563zM1195.294026 334.846563M784.091446 58.900298 784.091446 302.307264 725.922134 302.307264 725.922134 58.900298 725.922134 28.477554 725.922134-93.229056 871.342289 58.900298 784.091446 58.900298ZM609.586635 150.174784 609.586635-93.229056 667.755947-93.229056 667.755947 150.174784 667.755947 180.606907 667.755947 302.307264 522.342045 150.174784 609.586635 150.174784ZM609.586635 150.174784"  horiz-adv-x="1407" />

    
    <glyph glyph-name="fenxi" unicode="&#58995;" d="M297.8-100.536a30.12 30.12 0 0 0-0.024 60.232h428.416a30.12 30.12 0 0 0 0-60.232H297.8zM873.408 868.536H150.592c-66.536 0-120.472-53.936-120.472-120.472v-556.272c0-66.536 53.936-120.472 120.472-120.472h722.824c66.536 0 120.472 53.936 120.472 120.472V748.064c-0.008 66.536-53.944 120.472-120.48 120.472z m-43.968-246.248L597.176 349.064c-1.504-1.808-1.504-1.808-3.136-3.376a42.176 42.176 0 0 0-59.608 1.656l-0.024 0.024-131.136 138.848-165.52-150.16a30.112 30.112 0 0 0-40.472 44.576l178.656 162.152a42.16 42.16 0 0 0 59.032-2.232l129.384-137.096 219.192 257.864a30.128 30.128 0 0 0 45.896-39.032z"  horiz-adv-x="1024" />

    


  </font>
</defs>
</svg>
